<?xml version="1.0" encoding="UTF-8" standalone="no"?>
<!-- Created with Inkscape (http://www.inkscape.org/) -->

<svg
   xmlns:dc="http://purl.org/dc/elements/1.1/"
   xmlns:cc="http://creativecommons.org/ns#"
   xmlns:rdf="http://www.w3.org/1999/02/22-rdf-syntax-ns#"
   xmlns:svg="http://www.w3.org/2000/svg"
   xmlns="http://www.w3.org/2000/svg"
   xmlns:sodipodi="http://sodipodi.sourceforge.net/DTD/sodipodi-0.dtd"
   xmlns:inkscape="http://www.inkscape.org/namespaces/inkscape"
   width="100mm"
   height="100mm"
   viewBox="0 0 100 100"
   version="1.1"
   id="svg8"
   inkscape:version="0.92.3 (2405546, 2018-03-11)"
   sodipodi:docname="target.svg">
  <defs
     id="defs2" />
  <sodipodi:namedview
     id="base"
     pagecolor="#ffffff"
     bordercolor="#666666"
     borderopacity="1.0"
     inkscape:pageopacity="0.0"
     inkscape:pageshadow="2"
     inkscape:zoom="0.7"
     inkscape:cx="1151.8712"
     inkscape:cy="274.53489"
     inkscape:document-units="mm"
     inkscape:current-layer="layer1"
     showgrid="false"
     inkscape:window-width="1920"
     inkscape:window-height="1017"
     inkscape:window-x="-8"
     inkscape:window-y="-8"
     inkscape:window-maximized="1" />
  <metadata
     id="metadata5">
    <rdf:RDF>
      <cc:Work
         rdf:about="">
        <dc:format>image/svg+xml</dc:format>
        <dc:type
           rdf:resource="http://purl.org/dc/dcmitype/StillImage" />
        <dc:title></dc:title>
      </cc:Work>
    </rdf:RDF>
  </metadata>
  <g
     inkscape:label="Calque 1"
     inkscape:groupmode="layer"
     id="layer1"
     transform="translate(0,-197)">
    <ellipse
       style="fill:#ffcc00;stroke-width:0.47705263"
       id="path3732"
       cx="41.653172"
       cy="255.45956"
       rx="11.143844"
       ry="10.661948" />
    <path
       style="fill:#1a1a1a;fill-opacity:1;stroke-width:0.47705263"
       d="M 36.956711,295.05763 C 16.305467,291.61285 2.0116654,273.91719 1.7714834,255.21454 c 0.0072,-10.74967 3.514924,-19.63601 10.7578176,-27.26088 5.32535,-5.60621 10.066157,-8.63421 17.145841,-10.95118 5.61342,-1.83709 15.461536,-2.17658 21.239953,-0.73219 3.880182,0.9699 11.100232,3.98194 11.100232,4.63075 0,0.1842 -1.401462,1.90079 -3.114362,3.81466 l -3.11438,3.47975 -2.043793,-0.90406 c -7.627283,-3.37391 -17.627611,-3.15794 -25.299843,0.54637 -8.064195,3.89354 -14.307848,11.64428 -16.300056,20.23456 -2.9273326,12.62241 2.148459,25.61058 12.662327,32.40095 6.293327,4.06456 10.807871,5.27142 18.430556,4.92704 11.266616,-0.50901 20.036211,-6.04634 25.339835,-16.00021 2.471905,-4.63924 3.441649,-8.62842 3.450772,-14.19514 0.0072,-4.32703 -1.116186,-9.73056 -2.632177,-12.66214 -0.692491,-1.33915 -0.68097,-1.358 2.661639,-4.35473 1.846414,-1.65536 3.567716,-3.08297 3.825081,-3.17244 0.257365,-0.0894 1.216237,1.45691 2.130826,3.43641 6.07552,13.14968 4.503851,29.06596 -3.999616,40.50378 -1.970608,2.65062 -6.962144,7.57714 -9.415911,9.29325 -7.279243,5.09097 -19.123515,8.00862 -27.639514,6.80854 z"
       id="path3730"
       inkscape:connector-curvature="0" />
    <path
       style="fill:#d40000;stroke-width:0.47705263"
       d="m 35.574578,274.25095 c -5.300036,-1.68615 -9.395446,-5.35265 -11.913022,-10.66538 -2.19395,-5.74941 -2.241478,-11.98141 0.0476,-16.8439 1.905103,-4.02187 5.512685,-7.61205 9.582979,-9.53674 3.50645,-1.65808 9.44155,-2.27681 12.88035,-1.34275 l 2.046732,0.55593 -3.902072,4.26938 c -2.880707,3.1519 -4.352956,4.39133 -5.624617,4.73518 -4.022911,1.08783 -7.178166,5.33446 -7.198161,9.68794 -0.02669,5.82156 4.450464,10.3396 10.246153,10.3396 4.443414,0 8.691452,-3.11825 9.791861,-7.18768 0.343857,-1.27166 1.58328,-2.74389 4.735181,-5.62462 l 4.269404,-3.90207 0.555929,2.04673 c 0.325123,1.19704 0.456348,3.67255 0.31609,5.9631 -0.445782,7.27914 -4.367525,13.08866 -11.059538,16.38312 -5.09467,1.91962 -9.376136,2.7772 -14.774941,1.12216 z"
       id="path3728"
       inkscape:connector-curvature="0" />
    <path
       style="fill:#1a1a1a;stroke-width:0.47705263"
       d="m 40.695031,258.31081 c -1.400615,-0.56417 -2.678947,-2.59838 -2.327915,-3.70438 0.155963,-0.49137 0.656773,-1.31121 1.112923,-1.82191 2.241044,-2.50893 11.546609,-12.69574 13.904202,-15.22093 1.469797,-1.57426 5.098204,-5.4788 8.063148,-8.67675 l 5.390801,-5.81443 -0.102773,-4.92617 -0.102773,-4.9262 4.673427,-6.6718 c 5.915483,-8.44496 5.998206,-8.54084 6.695547,-7.76002 0.300188,0.33614 1.265568,2.7579 2.145286,5.38169 0.879718,2.6238 1.967236,5.8255 2.416714,7.11492 l 0.817225,2.34439 7.183485,2.42674 c 3.950933,1.33472 7.426803,2.67004 7.724143,2.9674 0.60998,0.60998 0.67159,0.55908 -8.596902,7.10004 l -5.956015,4.20325 -5.016202,-0.082 -5.016202,-0.082 -3.61941,3.46201 c -1.990657,1.90409 -6.928156,6.46546 -10.972199,10.13635 -4.044042,3.67088 -8.962862,8.19801 -10.930711,10.06028 -3.408419,3.22555 -5.639637,5.00698 -6.18857,4.94103 -0.138473,-0.0162 -0.722133,-0.21975 -1.297193,-0.45139 z"
       id="path3724"
       inkscape:connector-curvature="0" />
    <path
       style="fill:#ff0066;stroke-width:0.47705263"
       d="m 77.492911,198.48381 c -0.594742,0.0934 -1.750164,1.73054 -6.186777,8.06425 l -4.673624,6.67222 0.102485,4.92612 0.04845,2.32471 0.02982,0.0108 -0.0094,0.95877 0.03449,1.63149 -0.05032,0.0541 c -0.256974,8.95841 -0.718159,6.33321 8.477933,7.06075 l 3.453046,0.0568 5.016503,0.0829 5.955706,-4.20403 c 9.268498,-6.54095 9.207178,-6.48989 8.597198,-7.09988 -0.29734,-0.29735 -3.77322,-1.6329 -7.724158,-2.96761 l -7.18374,-2.42625 -0.817139,-2.34427 c -0.449478,-1.28942 -1.537225,-4.491 -2.416943,-7.11479 -0.87972,-2.62379 -1.844687,-5.04561 -2.144873,-5.38175 -0.174335,-0.19521 -0.310484,-0.33581 -0.508733,-0.30469 z"
       id="path3740"
       inkscape:connector-curvature="0"
       sodipodi:nodetypes="cccccccccccccccccscc" />
  </g>
</svg>
